<?xml version="1.0" encoding="utf-8"?>
<svg width="332" height="331" viewBox="0 0 332 331" fill="none" xmlns="http://www.w3.org/2000/svg">
  <path d="M161.183 62.3872C164.793 57.369 172.305 57.5031 175.735 62.647V62.647C184.366 75.594 186.289 91.8865 180.91 106.487L179.075 111.468C172.215 130.088 161.152 146.874 146.747 160.522L138.595 168.244C121.359 184.573 109.527 205.78 104.685 229.023V229.023V229.023C89.9234 194.886 94.1844 155.504 115.906 125.314L161.183 62.3872Z" fill="#34B6FF"/>
  <path d="M201.369 102.588L216.587 131.333C223.913 145.17 224.74 161.539 218.847 176.045L218.267 177.472C212.052 192.771 202.231 206.34 189.639 217.024L184.904 221.042C168.689 234.8 158.131 254.064 155.258 275.134V275.134V275.134C139.105 272.283 124.63 263.194 115.096 249.847V249.847L125.328 219.881C132.267 199.562 144.447 181.434 160.639 167.332V167.332C174.713 155.074 185.786 139.749 193.004 122.537L201.369 102.588Z" fill="#34B6FF"/>
  <path d="M204.785 227.314C218.008 217.81 227.741 204.221 232.482 188.642L235.584 178.449L240.951 194.551C246.95 212.547 244.304 232.305 233.782 248.089V248.089C223.618 263.334 207.184 273.251 188.959 275.136L174.598 276.622V276.622C176.49 257.708 186.415 240.517 201.85 229.423L204.785 227.314Z" fill="#34B6FF"/>
</svg>